<svg xmlns="http://www.w3.org/2000/svg" style="height:0;position:absolute;width:0"><defs>
<symbol id="icon-avatar-circle" viewBox="0 0 612 612">
<title>avatar-circle</title>
<path d="M612,306.036C612,137.405,474.595,0,305.964,0S0,137.405,0,306.036c0,92.881,42.14,176.437,107.698,232.599 c0.795,0.795,1.59,1.59,3.108,2.313C163.86,585.473,231.804,612,306.759,612c73.365,0,141.309-26.527,194.363-69.462 c3.108-0.795,5.493-3.108,7.011-5.493C571.451,480.088,612,398.122,612,306.036z M28.117,306.036 c0-153.018,124.901-277.919,277.919-277.919s277.919,124.901,277.919,277.919c0,74.955-29.635,142.826-78.063,192.845 c-7.806-36.719-31.225-99.169-103.072-139.718c16.408-20.311,25.732-46.838,25.732-74.955c0-67.149-54.644-121.793-121.793-121.793 s-121.793,54.644-121.793,121.793c0,28.117,10.119,53.849,25.732,74.955c-72.497,40.549-95.916,103-102.928,139.718 C58.547,449.658,28.117,380.991,28.117,306.036z M212.36,284.93c0-51.536,42.14-93.676,93.676-93.676s93.676,42.14,93.676,93.676 s-42.14,93.676-93.676,93.676S212.36,336.466,212.36,284.93z M132.707,523.023c1.59-22.624,14.022-99.169,98.374-142.104 c21.106,16.408,46.838,25.732,74.955,25.732c28.117,0,54.644-10.119,75.75-26.527c83.556,42.935,96.784,117.89,99.169,142.104 c-47.633,38.237-108.493,61.655-174.052,61.655C240.478,583.955,180.34,561.331,132.707,523.023z"/>
</symbol>
<symbol id="icon-facebook" viewBox="0 0 32 32">
<title>facebook</title>
<path d="M29 0h-26c-1.65 0-3 1.35-3 3v26c0 1.65 1.35 3 3 3h13v-14h-4v-4h4v-2c0-3.306 2.694-6 6-6h4v4h-4c-1.1 0-2 0.9-2 2v2h6l-1 4h-5v14h9c1.65 0 3-1.35 3-3v-26c0-1.65-1.35-3-3-3z"/>
</symbol>
<symbol id="icon-email" viewBox="0 0 512 512">
<title>email</title>
<path d="M426.655 0h-341.31c-46.94 0-85.345 38.392-85.345 85.329v341.328c0 46.938 38.405 85.343 85.345 85.343h341.311c46.969 0 85.344-38.405 85.344-85.343v-341.328c0-46.937-38.375-85.329-85.345-85.329zM128 128h256c4.569 0 9.002 0.981 13.072 2.831l-141.072 164.584-141.072-164.585c4.070-1.848 8.503-2.83 13.072-2.83zM96 352v-192c0-0.67 0.028-1.336 0.070-2l93.832 109.47-92.799 92.8c-0.722-2.669-1.103-5.443-1.103-8.27zM384 384h-256c-2.827 0-5.601-0.381-8.27-1.103l91.059-91.059 45.211 52.748 45.212-52.747 91.058 91.059c-2.67 0.721-5.443 1.102-8.27 1.102zM416 352c0 2.827-0.381 5.6-1.103 8.27l-92.799-92.799 93.832-109.471c0.042 0.664 0.070 1.33 0.070 2v192z"/>
</symbol>
<symbol id="icon-search" viewBox="0 0 26 28">
<title>search</title>
<path d="M18 13c0-3.859-3.141-7-7-7s-7 3.141-7 7 3.141 7 7 7 7-3.141 7-7zM26 26c0 1.094-0.906 2-2 2-0.531 0-1.047-0.219-1.406-0.594l-5.359-5.344c-1.828 1.266-4.016 1.937-6.234 1.937-6.078 0-11-4.922-11-11s4.922-11 11-11 11 4.922 11 11c0 2.219-0.672 4.406-1.937 6.234l5.359 5.359c0.359 0.359 0.578 0.875 0.578 1.406z"/>
</symbol>
<symbol id="icon-search2" viewBox="0 0 768 768">
<title>search2</title>
<path d="M25.376 677.376l45.248 45.248 140.32-140.32-44.064-46.432-141.504 141.504zM452 32c-156.8 0-284 127.168-284 284 0 61.408 19.744 118.080 52.864 164.576l53.44 56.32c48.672 39.264 110.304 63.136 177.696 63.136 156.864 0 284-127.168 284-284s-127.136-284.032-284-284.032zM452 536c-121.312 0-220-98.688-220-220s98.688-220 220-220 220 98.688 220 220-98.688 220-220 220z"/>
</symbol>
<symbol id="icon-cloud-download" viewBox="0 0 80.242 80.242">
<title>cloud-download</title>
<path d="M40.424,34.772c-1.104,0-2,0.896-2,2v31.205l-9.805-10.058c-0.781-0.781-1.922-0.781-2.703,0 c-0.781,0.78-0.719,2.047,0.062,2.828l12.696,12.667C39.049,73.789,39.573,74,40.104,74c0.531,0,1.047-0.211,1.422-0.586 l12.672-12.667c0.781-0.781,0.783-2.047,0.002-2.828s-2.296-0.781-3.077,0l-8.699,8.449V36.772 C42.424,35.667,41.528,34.772,40.424,34.772z"/> <path d="M80.242,36.062c0-9.756-8.016-17.597-17.867-17.597c-1.184,0-2.301,0.223-3.356,0.471 C55.495,11.26,47.715,6.242,39.123,6.242c-10.85,0-19.911,7.9-21.597,18.369c-0.823-0.139-1.659-0.202-2.501-0.202 C6.599,24.409,0,30.669,0,38.899c0,8.231,6.6,14.492,15.025,14.492h15.899c1.104,0,2-0.896,2-2s-0.896-2-2-2H15.026 c-6.183,0-11.025-4.501-11.025-10.489c0-5.987,4.843-10.583,11.025-10.583c1.116,0,2.219,0.214,3.258,0.537l0.377,0.145 c0.589,0.191,1.237,0.106,1.748-0.247c0.512-0.354,0.829-0.918,0.86-1.539c0.481-9.507,8.324-16.952,17.854-16.952 c7.525,0,14.286,4.727,16.821,11.761c0.238,0.66,0.87,1.161,1.56,1.296c0.317,0.063,0.647,0.046,0.958-0.044 c1.442-0.431,2.66-0.716,3.913-0.716c7.646,0,13.867,5.952,13.867,13.502c0,7.581-6.091,13.329-13.867,13.329H49.924 c-1.104,0-2,0.896-2,2s0.896,2,2,2h12.451C72.394,53.391,80.242,45.886,80.242,36.062z"/>
</symbol>
<symbol id="icon-info" viewBox="0 0 496.304 496.303">
<title>info</title>
<path d="M248.146,0C111.314,0,0,111.321,0,248.152c0,136.829,111.314,248.151,248.146,248.151 c136.835,0,248.158-111.322,248.158-248.151C496.304,111.321,384.98,0,248.146,0z M248.146,472.093 c-123.473,0-223.935-100.459-223.935-223.941c0-123.479,100.462-223.941,223.935-223.941 c123.488,0,223.947,100.462,223.947,223.941C472.093,371.634,371.634,472.093,248.146,472.093z M319.536,383.42v32.852 c0,1.383-1.123,2.494-2.482,2.494H196.45c-1.374,0-2.482-1.117-2.482-2.494V383.42c0-1.372,1.114-2.482,2.482-2.482h34.744V205.831 h-35.101c-1.375,0-2.468-1.111-2.468-2.474v-33.6c0-1.38,1.1-2.479,2.468-2.479h82.293c1.371,0,2.482,1.105,2.482,2.479v211.181 h36.186C318.413,380.938,319.536,382.048,319.536,383.42z M209.93,105.927c0-20.895,16.929-37.829,37.829-37.829 c20.886,0,37.826,16.935,37.826,37.829s-16.94,37.829-37.826,37.829C226.853,143.756,209.93,126.822,209.93,105.927z"/>
</symbol>
<symbol id="icon-clock" viewBox="0 0 97.16 97.16">
<title>clock</title>
<path d="M48.58,0C21.793,0,0,21.793,0,48.58s21.793,48.58,48.58,48.58s48.58-21.793,48.58-48.58S75.367,0,48.58,0z M48.58,86.823 c-21.087,0-38.244-17.155-38.244-38.243S27.493,10.337,48.58,10.337S86.824,27.492,86.824,48.58S69.667,86.823,48.58,86.823z"/> <path d="M73.898,47.08H52.066V20.83c0-2.209-1.791-4-4-4c-2.209,0-4,1.791-4,4v30.25c0,2.209,1.791,4,4,4h25.832 c2.209,0,4-1.791,4-4S76.107,47.08,73.898,47.08z"/>
</symbol>
<symbol id="icon-link" viewBox="0 0 457.03 457.03">
<title>link</title>
<path d="M421.512,207.074l-85.795,85.767c-47.352,47.38-124.169,47.38-171.529,0c-7.46-7.439-13.296-15.821-18.421-24.465 l39.864-39.861c1.895-1.911,4.235-3.006,6.471-4.296c2.756,9.416,7.567,18.33,14.972,25.736c23.648,23.667,62.128,23.634,85.762,0 l85.768-85.765c23.666-23.664,23.666-62.135,0-85.781c-23.635-23.646-62.105-23.646-85.768,0l-30.499,30.532 c-24.75-9.637-51.415-12.228-77.373-8.424l64.991-64.989c47.38-47.371,124.177-47.371,171.557,0 C468.869,82.897,468.869,159.706,421.512,207.074z M194.708,348.104l-30.521,30.532c-23.646,23.634-62.128,23.634-85.778,0 c-23.648-23.667-23.648-62.138,0-85.795l85.778-85.767c23.665-23.662,62.121-23.662,85.767,0 c7.388,7.39,12.204,16.302,14.986,25.706c2.249-1.307,4.56-2.369,6.454-4.266l39.861-39.845 c-5.092-8.678-10.958-17.03-18.421-24.477c-47.348-47.371-124.172-47.371-171.543,0L35.526,249.96 c-47.366,47.385-47.366,124.172,0,171.553c47.371,47.356,124.177,47.356,171.547,0l65.008-65.003 C246.109,360.336,219.437,357.723,194.708,348.104z"/>
</symbol>
<symbol id="icon-volum" viewBox="0 0 480 480">
<title>volum</title>
<path d="M278.944,17.577c-5.568-2.656-12.128-1.952-16.928,1.92L106.368,144.009H32c-17.632,0-32,14.368-32,32v128 c0,17.632,14.368,32,32,32h74.368l155.616,124.512c2.912,2.304,6.464,3.488,10.016,3.488c2.368,0,4.736-0.512,6.944-1.568 c5.536-2.688,9.056-8.288,9.056-14.432v-416C288,25.865,284.48,20.265,278.944,17.577z M96,304.009H32v-128h64V304.009z M256,414.697l-128-102.4V167.721l128-102.4V414.697z"/> <path d="M369.024,126.857c-6.304-6.24-16.416-6.144-22.624,0.128c-6.208,6.304-6.144,16.416,0.128,22.624 c24.16,23.904,37.472,56,37.472,90.4c0,34.4-13.312,66.496-37.472,90.4c-6.304,6.208-6.368,16.32-0.128,22.624 c3.136,3.168,7.264,4.736,11.36,4.736c4.064,0,8.128-1.536,11.264-4.64c30.304-29.92,46.976-70.08,46.976-113.12 C416,196.969,399.328,156.809,369.024,126.857z"/> <path d="M414.144,81.769c-6.272-6.208-16.416-6.176-22.624,0.096c-6.208,6.272-6.176,16.416,0.096,22.624 C427.968,140.553,448,188.681,448,240.009s-20.032,99.456-56.384,135.52c-6.272,6.208-6.304,16.352-0.096,22.624 c3.136,3.168,7.232,4.736,11.36,4.736c4.064,0,8.128-1.536,11.264-4.64C456.608,356.137,480,299.945,480,240.009 C480,180.073,456.608,123.881,414.144,81.769z"/>
</symbol>
<symbol id="icon-gear" viewBox="0 0 478.703 478.703">
<title>gear</title>
<path d="M454.2,189.101l-33.6-5.7c-3.5-11.3-8-22.2-13.5-32.6l19.8-27.7c8.4-11.8,7.1-27.9-3.2-38.1l-29.8-29.8 c-5.6-5.6-13-8.7-20.9-8.7c-6.2,0-12.1,1.9-17.1,5.5l-27.8,19.8c-10.8-5.7-22.1-10.4-33.8-13.9l-5.6-33.2 c-2.4-14.3-14.7-24.7-29.2-24.7h-42.1c-14.5,0-26.8,10.4-29.2,24.7l-5.8,34c-11.2,3.5-22.1,8.1-32.5,13.7l-27.5-19.8 c-5-3.6-11-5.5-17.2-5.5c-7.9,0-15.4,3.1-20.9,8.7l-29.9,29.8c-10.2,10.2-11.6,26.3-3.2,38.1l20,28.1 c-5.5,10.5-9.9,21.4-13.3,32.7l-33.2,5.6c-14.3,2.4-24.7,14.7-24.7,29.2v42.1c0,14.5,10.4,26.8,24.7,29.2l34,5.8 c3.5,11.2,8.1,22.1,13.7,32.5l-19.7,27.4c-8.4,11.8-7.1,27.9,3.2,38.1l29.8,29.8c5.6,5.6,13,8.7,20.9,8.7c6.2,0,12.1-1.9,17.1-5.5 l28.1-20c10.1,5.3,20.7,9.6,31.6,13l5.6,33.6c2.4,14.3,14.7,24.7,29.2,24.7h42.2c14.5,0,26.8-10.4,29.2-24.7l5.7-33.6 c11.3-3.5,22.2-8,32.6-13.5l27.7,19.8c5,3.6,11,5.5,17.2,5.5l0,0c7.9,0,15.3-3.1,20.9-8.7l29.8-29.8c10.2-10.2,11.6-26.3,3.2-38.1 l-19.8-27.8c5.5-10.5,10.1-21.4,13.5-32.6l33.6-5.6c14.3-2.4,24.7-14.7,24.7-29.2v-42.1 C478.9,203.801,468.5,191.501,454.2,189.101z M451.9,260.401c0,1.3-0.9,2.4-2.2,2.6l-42,7c-5.3,0.9-9.5,4.8-10.8,9.9 c-3.8,14.7-9.6,28.8-17.4,41.9c-2.7,4.6-2.5,10.3,0.6,14.7l24.7,34.8c0.7,1,0.6,2.5-0.3,3.4l-29.8,29.8c-0.7,0.7-1.4,0.8-1.9,0.8 c-0.6,0-1.1-0.2-1.5-0.5l-34.7-24.7c-4.3-3.1-10.1-3.3-14.7-0.6c-13.1,7.8-27.2,13.6-41.9,17.4c-5.2,1.3-9.1,5.6-9.9,10.8l-7.1,42 c-0.2,1.3-1.3,2.2-2.6,2.2h-42.1c-1.3,0-2.4-0.9-2.6-2.2l-7-42c-0.9-5.3-4.8-9.5-9.9-10.8c-14.3-3.7-28.1-9.4-41-16.8 c-2.1-1.2-4.5-1.8-6.8-1.8c-2.7,0-5.5,0.8-7.8,2.5l-35,24.9c-0.5,0.3-1,0.5-1.5,0.5c-0.4,0-1.2-0.1-1.9-0.8l-29.8-29.8 c-0.9-0.9-1-2.3-0.3-3.4l24.6-34.5c3.1-4.4,3.3-10.2,0.6-14.8c-7.8-13-13.8-27.1-17.6-41.8c-1.4-5.1-5.6-9-10.8-9.9l-42.3-7.2 c-1.3-0.2-2.2-1.3-2.2-2.6v-42.1c0-1.3,0.9-2.4,2.2-2.6l41.7-7c5.3-0.9,9.6-4.8,10.9-10c3.7-14.7,9.4-28.9,17.1-42 c2.7-4.6,2.4-10.3-0.7-14.6l-24.9-35c-0.7-1-0.6-2.5,0.3-3.4l29.8-29.8c0.7-0.7,1.4-0.8,1.9-0.8c0.6,0,1.1,0.2,1.5,0.5l34.5,24.6 c4.4,3.1,10.2,3.3,14.8,0.6c13-7.8,27.1-13.8,41.8-17.6c5.1-1.4,9-5.6,9.9-10.8l7.2-42.3c0.2-1.3,1.3-2.2,2.6-2.2h42.1 c1.3,0,2.4,0.9,2.6,2.2l7,41.7c0.9,5.3,4.8,9.6,10,10.9c15.1,3.8,29.5,9.7,42.9,17.6c4.6,2.7,10.3,2.5,14.7-0.6l34.5-24.8 c0.5-0.3,1-0.5,1.5-0.5c0.4,0,1.2,0.1,1.9,0.8l29.8,29.8c0.9,0.9,1,2.3,0.3,3.4l-24.7,34.7c-3.1,4.3-3.3,10.1-0.6,14.7 c7.8,13.1,13.6,27.2,17.4,41.9c1.3,5.2,5.6,9.1,10.8,9.9l42,7.1c1.3,0.2,2.2,1.3,2.2,2.6v42.1H451.9z"/> <path d="M239.4,136.001c-57,0-103.3,46.3-103.3,103.3s46.3,103.3,103.3,103.3s103.3-46.3,103.3-103.3S296.4,136.001,239.4,136.001 z M239.4,315.601c-42.1,0-76.3-34.2-76.3-76.3s34.2-76.3,76.3-76.3s76.3,34.2,76.3,76.3S281.5,315.601,239.4,315.601z"/>
</symbol>
<symbol id="icon-user" viewBox="0 0 32 32">
<title>user</title>
<path d="M16,22c4.963,0,9-4.936,9-11c0-6.064-4.038-11-9-11c-2.447,0-4.734,1.174-6.438,3.305C7.909,5.37,7,8.104,7,11.001 C7,17.064,11.037,22,16,22z M16,2.001c3.859,0,7,4.037,7,9c0,4.962-3.141,9-7,9c-3.859,0-7-4.038-7.001-9 C8.999,6.038,12.14,2.001,16,2.001z M23,20c-0.553,0-1,0.447-1,1s0.447,1,1,1c3.859,0,7,3.141,7,7c0,0.551-0.449,1-1,1H3 c-0.551,0-1-0.449-1-1c0-3.859,3.141-7,7-7c0.553,0,1-0.447,1-1s-0.447-1-1-1c-4.963,0-9,4.037-9,9c0,1.654,1.346,3,3,3h26 c1.654,0,3-1.346,3-3C32,24.038,27.963,20,23,20z"/>
</symbol>
<symbol id="icon-logout" viewBox="0 0 330 330">
<title>logout</title>
<path id="XMLID_4_" d="M51.213,180h173.785c8.284,0,15-6.716,15-15s-6.716-15-15-15H51.213l19.394-19.393   c5.858-5.857,5.858-15.355,0-21.213c-5.856-5.858-15.354-5.858-21.213,0L4.397,154.391c-0.348,0.347-0.676,0.71-0.988,1.09   c-0.076,0.093-0.141,0.193-0.215,0.288c-0.229,0.291-0.454,0.583-0.66,0.891c-0.06,0.09-0.109,0.185-0.168,0.276   c-0.206,0.322-0.408,0.647-0.59,0.986c-0.035,0.067-0.064,0.138-0.099,0.205c-0.189,0.367-0.371,0.739-0.53,1.123   c-0.02,0.047-0.034,0.097-0.053,0.145c-0.163,0.404-0.314,0.813-0.442,1.234c-0.017,0.053-0.026,0.108-0.041,0.162   c-0.121,0.413-0.232,0.83-0.317,1.257c-0.025,0.127-0.036,0.258-0.059,0.386c-0.062,0.354-0.124,0.708-0.159,1.069   C0.025,163.998,0,164.498,0,165s0.025,1.002,0.076,1.498c0.035,0.366,0.099,0.723,0.16,1.08c0.022,0.124,0.033,0.251,0.058,0.374   c0.086,0.431,0.196,0.852,0.318,1.269c0.015,0.049,0.024,0.101,0.039,0.15c0.129,0.423,0.28,0.836,0.445,1.244   c0.018,0.044,0.031,0.091,0.05,0.135c0.16,0.387,0.343,0.761,0.534,1.13c0.033,0.065,0.061,0.133,0.095,0.198   c0.184,0.341,0.387,0.669,0.596,0.994c0.056,0.088,0.104,0.181,0.162,0.267c0.207,0.309,0.434,0.603,0.662,0.895   c0.073,0.094,0.138,0.193,0.213,0.285c0.313,0.379,0.641,0.743,0.988,1.09l44.997,44.997C52.322,223.536,56.161,225,60,225   s7.678-1.464,10.606-4.394c5.858-5.858,5.858-15.355,0-21.213L51.213,180z"/><path id="XMLID_5_" d="M207.299,42.299c-40.944,0-79.038,20.312-101.903,54.333c-4.62,6.875-2.792,16.195,4.083,20.816   c6.876,4.62,16.195,2.794,20.817-4.083c17.281-25.715,46.067-41.067,77.003-41.067C258.414,72.299,300,113.884,300,165   s-41.586,92.701-92.701,92.701c-30.845,0-59.584-15.283-76.878-40.881c-4.639-6.865-13.961-8.669-20.827-4.032   c-6.864,4.638-8.67,13.962-4.032,20.826c22.881,33.868,60.913,54.087,101.737,54.087C274.956,287.701,330,232.658,330,165   S274.956,42.299,207.299,42.299z"/>
</symbol>
<symbol id="icon-settings" viewBox="0 0 478.703 478.703">
<title>settings</title>
<path d="M454.2,189.101l-33.6-5.7c-3.5-11.3-8-22.2-13.5-32.6l19.8-27.7c8.4-11.8,7.1-27.9-3.2-38.1l-29.8-29.8    c-5.6-5.6-13-8.7-20.9-8.7c-6.2,0-12.1,1.9-17.1,5.5l-27.8,19.8c-10.8-5.7-22.1-10.4-33.8-13.9l-5.6-33.2    c-2.4-14.3-14.7-24.7-29.2-24.7h-42.1c-14.5,0-26.8,10.4-29.2,24.7l-5.8,34c-11.2,3.5-22.1,8.1-32.5,13.7l-27.5-19.8    c-5-3.6-11-5.5-17.2-5.5c-7.9,0-15.4,3.1-20.9,8.7l-29.9,29.8c-10.2,10.2-11.6,26.3-3.2,38.1l20,28.1    c-5.5,10.5-9.9,21.4-13.3,32.7l-33.2,5.6c-14.3,2.4-24.7,14.7-24.7,29.2v42.1c0,14.5,10.4,26.8,24.7,29.2l34,5.8    c3.5,11.2,8.1,22.1,13.7,32.5l-19.7,27.4c-8.4,11.8-7.1,27.9,3.2,38.1l29.8,29.8c5.6,5.6,13,8.7,20.9,8.7c6.2,0,12.1-1.9,17.1-5.5    l28.1-20c10.1,5.3,20.7,9.6,31.6,13l5.6,33.6c2.4,14.3,14.7,24.7,29.2,24.7h42.2c14.5,0,26.8-10.4,29.2-24.7l5.7-33.6    c11.3-3.5,22.2-8,32.6-13.5l27.7,19.8c5,3.6,11,5.5,17.2,5.5l0,0c7.9,0,15.3-3.1,20.9-8.7l29.8-29.8c10.2-10.2,11.6-26.3,3.2-38.1    l-19.8-27.8c5.5-10.5,10.1-21.4,13.5-32.6l33.6-5.6c14.3-2.4,24.7-14.7,24.7-29.2v-42.1    C478.9,203.801,468.5,191.501,454.2,189.101z M451.9,260.401c0,1.3-0.9,2.4-2.2,2.6l-42,7c-5.3,0.9-9.5,4.8-10.8,9.9    c-3.8,14.7-9.6,28.8-17.4,41.9c-2.7,4.6-2.5,10.3,0.6,14.7l24.7,34.8c0.7,1,0.6,2.5-0.3,3.4l-29.8,29.8c-0.7,0.7-1.4,0.8-1.9,0.8    c-0.6,0-1.1-0.2-1.5-0.5l-34.7-24.7c-4.3-3.1-10.1-3.3-14.7-0.6c-13.1,7.8-27.2,13.6-41.9,17.4c-5.2,1.3-9.1,5.6-9.9,10.8l-7.1,42    c-0.2,1.3-1.3,2.2-2.6,2.2h-42.1c-1.3,0-2.4-0.9-2.6-2.2l-7-42c-0.9-5.3-4.8-9.5-9.9-10.8c-14.3-3.7-28.1-9.4-41-16.8    c-2.1-1.2-4.5-1.8-6.8-1.8c-2.7,0-5.5,0.8-7.8,2.5l-35,24.9c-0.5,0.3-1,0.5-1.5,0.5c-0.4,0-1.2-0.1-1.9-0.8l-29.8-29.8    c-0.9-0.9-1-2.3-0.3-3.4l24.6-34.5c3.1-4.4,3.3-10.2,0.6-14.8c-7.8-13-13.8-27.1-17.6-41.8c-1.4-5.1-5.6-9-10.8-9.9l-42.3-7.2    c-1.3-0.2-2.2-1.3-2.2-2.6v-42.1c0-1.3,0.9-2.4,2.2-2.6l41.7-7c5.3-0.9,9.6-4.8,10.9-10c3.7-14.7,9.4-28.9,17.1-42    c2.7-4.6,2.4-10.3-0.7-14.6l-24.9-35c-0.7-1-0.6-2.5,0.3-3.4l29.8-29.8c0.7-0.7,1.4-0.8,1.9-0.8c0.6,0,1.1,0.2,1.5,0.5l34.5,24.6    c4.4,3.1,10.2,3.3,14.8,0.6c13-7.8,27.1-13.8,41.8-17.6c5.1-1.4,9-5.6,9.9-10.8l7.2-42.3c0.2-1.3,1.3-2.2,2.6-2.2h42.1    c1.3,0,2.4,0.9,2.6,2.2l7,41.7c0.9,5.3,4.8,9.6,10,10.9c15.1,3.8,29.5,9.7,42.9,17.6c4.6,2.7,10.3,2.5,14.7-0.6l34.5-24.8    c0.5-0.3,1-0.5,1.5-0.5c0.4,0,1.2,0.1,1.9,0.8l29.8,29.8c0.9,0.9,1,2.3,0.3,3.4l-24.7,34.7c-3.1,4.3-3.3,10.1-0.6,14.7    c7.8,13.1,13.6,27.2,17.4,41.9c1.3,5.2,5.6,9.1,10.8,9.9l42,7.1c1.3,0.2,2.2,1.3,2.2,2.6v42.1H451.9z"/><path d="M239.4,136.001c-57,0-103.3,46.3-103.3,103.3s46.3,103.3,103.3,103.3s103.3-46.3,103.3-103.3S296.4,136.001,239.4,136.001    z M239.4,315.601c-42.1,0-76.3-34.2-76.3-76.3s34.2-76.3,76.3-76.3s76.3,34.2,76.3,76.3S281.5,315.601,239.4,315.601z"/>
</symbol>
<symbol id="icon-bar" viewBox="0 0 24 24">
<title>bar</title>
<path d="M21 11h-18c-0.6 0-1 0.4-1 1s0.4 1 1 1h18c0.6 0 1-0.4 1-1s-0.4-1-1-1z"/>
<path d="M3 7h18c0.6 0 1-0.4 1-1s-0.4-1-1-1h-18c-0.6 0-1 0.4-1 1s0.4 1 1 1z"/>
<path d="M21 17h-18c-0.6 0-1 0.4-1 1s0.4 1 1 1h18c0.6 0 1-0.4 1-1s-0.4-1-1-1z"/>
</symbol>
<symbol id="icon-plus" viewBox="0 0 24 24">
<title>plus</title>
<path d="M19 11h-6v-6c0-0.6-0.4-1-1-1s-1 0.4-1 1v6h-6c-0.6 0-1 0.4-1 1s0.4 1 1 1h6v6c0 0.6 0.4 1 1 1s1-0.4 1-1v-6h6c0.6 0 1-0.4 1-1s-0.4-1-1-1z"/>
</symbol>
<symbol id="icon-election" viewBox="0 0 249.425 249.425">
<title>election</title>
<path d="M206.79,81.505c-3.313,0-6,2.687-6,6v149.919H12V48.635h146.792c3.314,0,6-2.687,6-6s-2.686-6-6-6H6c-3.313,0-6,2.687-6,6 v200.789c0,3.313,2.687,6,6,6h200.79c3.313,0,6-2.687,6-6V87.505C212.79,84.192,210.103,81.505,206.79,81.505z"/> <path d="M247.667,1.758c-2.343-2.343-6.142-2.345-8.485,0L80.416,160.523L41.023,121.13c-2.343-2.344-6.143-2.344-8.485,0 c-2.343,2.343-2.343,6.142,0,8.484l43.636,43.636c1.171,1.172,2.707,1.758,4.243,1.758s3.071-0.586,4.243-1.758L247.667,10.243 C250.011,7.9,250.011,4.101,247.667,1.758z"/>
</symbol>
<symbol id="icon-election-event" viewBox="0 0 425 425">
<title>election-event</title>
<path d="M293.333,45V20h-30v25H161.667V20h-30v25H0v360h425V45H293.333z M131.667,75v25h30V75h101.666v20h30V75H395v50H30V75 H131.667z M30,375V155h365v220H30z"/><polygon points="203.28,277.107 165.686,239.513 144.473,260.726 203.28,319.534 280.527,242.286 259.314,221.073"/>
</symbol>
<symbol id="icon-candidate" viewBox="0 0 512 512">
<title>candidate</title>
<path d="M50.918,445.739c1.143,0,2.295-0.23,3.405-0.717c27.221-11.853,73.19-18.022,136.678-18.347l6.161,12.339 c2.116,4.216,7.245,5.939,11.452,3.814c4.215-2.108,5.931-7.228,3.814-11.443l-8.525-17.067 c-1.451-2.893-4.403-4.719-7.637-4.719c-69.538,0-118.204,6.468-148.762,19.772c-4.318,1.886-6.289,6.912-4.412,11.238 C44.493,443.819,47.625,445.739,50.918,445.739z"/> <path d="M494.933,460.8h-17.067v-42.667c0-2.261-0.905-4.437-2.5-6.033l-51.268-51.26c1.604-3.337,2.569-7.031,2.569-10.974 c0-14.114-11.486-25.6-25.6-25.6c-14.114,0-25.6,11.486-25.6,25.6s11.486,25.6,25.6,25.6c3.942,0,7.629-0.964,10.965-2.56 l48.768,48.759V460.8H17.067C7.654,460.8,0,468.454,0,477.867v25.6C0,508.177,3.823,512,8.533,512s8.533-3.823,8.533-8.533v-25.6 h477.867v25.6c0,4.71,3.814,8.533,8.533,8.533c4.719,0,8.533-3.823,8.533-8.533v-25.6C512,468.454,504.337,460.8,494.933,460.8z M401.067,358.4c-4.71,0-8.533-3.831-8.533-8.533s3.823-8.533,8.533-8.533s8.533,3.831,8.533,8.533S405.777,358.4,401.067,358.4z "/> <path d="M121.83,255.249c6.221,16.196,26.803,68.42,41.737,90.82l1.348,2.039c10.957,16.614,29.286,44.424,91.085,44.424 c61.79,0,80.128-27.81,91.085-44.424l1.348-2.039c14.933-22.4,35.507-74.624,41.737-90.82c11.145-2.773,19.43-12.86,19.43-24.849 v-34.133c0-11.127-7.134-20.617-17.067-24.141V128c0-33.69-17.741-95.923-83.362-101.931c-0.128-4.028-1.459-7.27-2.944-9.668 C297.839,2.842,274.287,0,256,0C104.158,0,102.4,143.616,102.4,145.067c0,4.71,3.814,8.525,8.516,8.525h0.017 c4.702,0,8.516-3.806,8.533-8.516c0.017-5.222,1.937-128.009,136.533-128.009c24.132,0,33.801,5.222,35.712,8.311 c0.265,0.435,0.99,1.604-0.683,4.941c-1.323,2.645-1.178,5.786,0.375,8.303c1.562,2.509,4.301,4.045,7.262,4.045c75.657,0,76.791,81.86,76.8,85.333v51.2c0,4.71,3.814,8.533,8.533,8.533c4.71,0,8.533,3.831,8.533,8.533V230.4 c0,4.702-3.823,8.533-8.533,8.533c-3.558,0-6.741,2.21-7.996,5.538c-0.247,0.674-25.446,67.644-41.771,92.126l-1.399,2.116 c-10.223,15.514-24.235,36.753-76.834,36.753c-52.608,0-66.611-21.239-76.834-36.753l-1.399-2.116 c-16.324-24.482-41.523-91.452-41.779-92.126c-1.246-3.328-4.429-5.538-7.987-5.538c-4.702,0-8.533-3.831-8.533-8.533v-34.133 c0-2.313,0.922-4.412,2.423-5.948c3.098,6.955,9.421,13.21,20.045,14.268l29.201,21.897C173.414,243.106,187.554,256,204.8,256 h17.067C240.691,256,256,240.691,256,221.867C256,240.691,271.309,256,290.133,256H307.2c17.237,0,31.394-12.894,33.664-29.525 l31.189-23.381c3.772-2.825,4.54-8.175,1.707-11.947c-2.825-3.772-8.175-4.548-11.947-1.707l-21.751,16.316 c-3.251-10.402-12.86-18.022-24.329-18.022H281.6c-14.114,0-25.6,11.486-25.6,25.6c0-14.114-11.486-25.6-25.6-25.6h-34.133 c-11.46,0-21.069,7.62-24.328,18.022l-16.282-12.211c6.716-16.23,12.8-40.235,14.524-57.088 c26.897-0.478,104.713-3.763,139.332-25.37c7.851,30.31,33.05,55.817,34.321,57.08c3.336,3.336,8.73,3.336,12.066,0 c3.336-3.337,3.336-8.73,0-12.066c-0.316-0.316-31.633-31.983-31.633-62.234c0-3.831-2.56-7.202-6.255-8.226 c-3.678-1.024-7.629,0.546-9.591,3.831c-12.425,20.693-93.022,29.995-146.287,29.995c-4.71,0-8.533,3.823-8.533,8.533 c0,13.85-6.545,41.515-13.508,58.539c-2.722-1.638-3.49-4.693-3.558-7.339c0-4.71-3.823-8.533-8.533-8.533 c-14.114,0-25.6,11.486-25.6,25.6V230.4C102.4,242.389,110.686,252.476,121.83,255.249z M273.067,213.333 c0-4.702,3.823-8.533,8.533-8.533h34.133c4.71,0,8.533,3.831,8.533,8.533v8.533c0,9.412-7.654,17.067-17.067,17.067h-17.067 c-9.412,0-17.067-7.654-17.067-17.067V213.333z M187.733,213.333c0-4.702,3.831-8.533,8.533-8.533H230.4 c4.702,0,8.533,3.831,8.533,8.533v8.533c0,9.412-7.654,17.067-17.067,17.067H204.8c-9.412,0-17.067-7.654-17.067-17.067V213.333z "/> <path d="M298.658,307.226c0.009-4.702-3.797-8.533-8.499-8.559c-0.162,0-15.42-0.171-30.345-7.637 c-2.398-1.195-5.231-1.195-7.629,0c-14.925,7.467-30.191,7.637-30.319,7.637c-4.71,0-8.533,3.823-8.533,8.533 s3.823,8.533,8.533,8.533c0.725,0,16.845-0.094,34.133-7.654c17.28,7.56,33.408,7.654,34.133,7.654 C294.835,315.733,298.641,311.927,298.658,307.226z"/> <path d="M315.708,409.95c-3.191,0.017-6.118,1.809-7.578,4.659l-8.533,16.708c-2.142,4.198-0.469,9.344,3.721,11.486 c1.237,0.631,2.569,0.93,3.874,0.93c3.106,0,6.101-1.698,7.612-4.651l6.153-12.066c46.643,0.128,84.207,3.618,111.735,10.377 c4.591,1.135,9.199-1.672,10.317-6.246c1.126-4.582-1.664-9.199-6.246-10.325C406.878,413.474,366.345,409.651,315.708,409.95z"/> <path d="M247.467,418.133V435.2c0,4.71,3.823,8.533,8.533,8.533s8.533-3.823,8.533-8.533v-17.067c0-4.71-3.823-8.533-8.533-8.533 S247.467,413.423,247.467,418.133z"/> <path d="M247.467,324.267c-4.71,0-8.533,3.823-8.533,8.533c0,4.71,3.823,8.533,8.533,8.533h17.067 c4.719,0,8.533-3.823,8.533-8.533c0-4.71-3.814-8.533-8.533-8.533H247.467z"/>
</symbol>
<symbol id="icon-voter" viewBox="0 0 512.003 512.003">
<title>voter</title>
<path d="M505.538,64.857l-149.333-64c-4.373-1.877-9.515-0.597-12.523,3.136l-42.667,53.333c-2.027,2.517-2.795,5.803-2.091,8.96 c0.661,3.008,2.624,5.483,5.291,6.955l-134.016,50.261c-11.243,4.224-20.864,12.224-27.029,22.507l-44.288,73.813 c-9.429,15.723-10.176,34.901-1.963,51.285l3.115,6.229H53.335c-5.888,0-10.667,4.779-10.667,10.667V490.67h-32 c-5.888,0-10.667,4.779-10.667,10.667c0,5.888,4.779,10.667,10.667,10.667h362.667c5.888,0,10.667-4.779,10.667-10.667 c0-5.888-4.779-10.667-10.667-10.667h-32V341.337c0-0.811-0.299-1.515-0.448-2.261c20.011-13.547,42.88-34.453,62.827-66.752 c33.899-54.827,52.949-98.965,60.779-118.827l1.195,0.597c4.565,2.283,9.451,3.413,14.336,3.413c5.824,0,11.627-1.6,16.789-4.821 c9.515-5.867,15.189-16.043,15.189-27.221V74.649C512.002,70.382,509.463,66.542,505.538,64.857z M320.002,490.67h-256v-192 h53.483c0.256,0,0.512,0.021,0.789,0h84.565c-9.621,5.845-21.44,13.205-36.395,22.72c-11.371,7.232-19.157,18.453-21.931,31.637 c-2.795,13.184-0.213,26.645,7.317,37.909c9.536,14.357,25.259,22.165,41.344,22.165c8.704,0,17.536-2.304,25.536-7.061 l73.301-43.968c4.203-1.024,14.507-3.989,27.989-10.709V490.67z M178.391,250.393c16.32-6.997,38.144-19.669,49.216-32.576 c8.512,4.992,21.909,11.413,38.656,14.699c-11.904,14.741-23.851,32.661-28.907,45.355c-0.875-0.235-1.728-0.533-2.688-0.533 H190.85C188.588,266.734,183.362,257.369,178.391,250.393z M385.623,261.102c-42.069,68.053-99.115,80.363-99.669,80.469 c-1.195,0.256-2.368,0.704-3.413,1.323l-74.752,44.843c-13.013,7.829-29.781,4.053-38.229-8.619 c-4.267-6.421-5.739-14.101-4.16-21.632c1.6-7.509,6.037-13.931,12.523-18.048c57.323-36.501,67.669-40.512,67.456-40.747 c5.909,0,10.645-4.267,10.645-10.155c1.088-6.677,20.523-37.909,39.573-56.96c3.051-3.051,3.968-7.637,2.304-11.627 c-1.643-3.989-5.547-6.592-9.856-6.592c-33.195,0-57.088-18.795-57.323-18.987c-3.2-2.539-7.488-3.733-11.2-1.941 c-3.712,1.771-5.973,4.843-5.973,8.939c-3.776,9.152-44.715,32.299-53.547,33.301c-4.395,0-8.299,2.667-9.899,6.763 c-1.6,4.096-0.533,8.747,2.688,11.733c0.128,0.128,11.307,10.752,15.872,24.171h-44.757l-7.872-15.787 c-4.928-9.835-4.501-21.333,1.173-30.763l44.288-73.813c3.712-6.187,9.472-10.965,16.213-13.504l152.363-57.131l115.264,57.621 C438.274,161.987,419.436,206.382,385.623,261.102z M490.668,125.507c0,5.376-3.541,8.128-5.056,9.067s-5.589,2.859-10.368,0.469 L325.911,60.377l29.355-36.672l135.403,58.027V125.507z"/>
</symbol>
<symbol id="icon-parties" viewBox="0 0 512 512">
<title>parties</title>
<path d="M373.44,318.229c0.981-2.304,2.027-4.331,3.243-5.547c2.88-2.859,9.643-4.907,16.192-6.891 c10.88-3.307,23.232-7.04,29.44-17.771c6.123-10.581,3.221-23.04,0.683-34.027c-1.579-6.741-3.2-13.717-2.091-17.792 c0.96-3.733,5.931-9.003,10.304-13.653C439.083,214.165,448,204.672,448,192s-8.917-22.165-16.789-30.549 c-4.373-4.651-9.323-9.92-10.304-13.632c-1.088-4.075,0.533-11.072,2.091-17.813c2.539-10.987,5.44-23.445-0.683-34.048 c-6.208-10.731-18.539-14.464-29.44-17.749c-6.549-1.984-13.291-4.032-16.171-6.891c-2.88-2.859-4.907-9.621-6.891-16.171 c-3.285-10.88-7.019-23.211-17.749-29.419c-10.645-6.165-23.061-3.264-34.069-0.704c-6.741,1.557-13.696,3.179-17.792,2.091 c-3.733-1.003-9.003-5.952-13.653-10.325C278.166,8.917,268.672,0,256,0c-12.651,0-22.144,8.917-30.528,16.789 c-4.672,4.373-9.941,9.323-13.675,10.325c-4.096,1.109-11.072-0.533-17.792-2.091c-11.029-2.56-23.467-5.44-34.069,0.683 c-10.709,6.208-14.443,18.539-17.728,29.44c-1.984,6.549-4.032,13.312-6.891,16.171c-2.88,2.859-9.643,4.907-16.192,6.891 c-10.88,3.307-23.232,7.04-29.44,17.771c-6.123,10.581-3.221,23.04-0.683,34.027c1.579,6.741,3.2,13.717,2.091,17.792 c-0.96,3.733-5.931,9.003-10.304,13.653C72.918,169.835,64,179.349,64,192s8.917,22.165,16.789,30.549 c4.373,4.651,9.323,9.92,10.304,13.632c1.088,4.075-0.533,11.072-2.091,17.813c-2.539,10.987-5.44,23.445,0.683,34.048 c6.208,10.731,18.539,14.464,29.44,17.749c6.549,1.984,13.291,4.032,16.171,6.891c1.216,1.216,2.261,3.221,3.243,5.525 L64.811,497.259c-1.707,4.117-0.661,8.853,2.581,11.883c2.027,1.877,4.629,2.859,7.275,2.859c1.621,0,3.243-0.363,4.779-1.152 l79.787-39.893l58.859,39.232c2.709,1.792,6.101,2.24,9.195,1.28c3.093-1.003,5.568-3.349,6.699-6.4l23.296-62.123l20.587,61.76 c1.067,3.157,3.541,5.632,6.677,6.72c3.136,1.067,6.592,0.64,9.365-1.216l58.859-39.232l79.787,39.893 c1.536,0.768,3.157,1.131,4.779,1.131c2.645,0,5.248-0.981,7.253-2.837c3.243-3.029,4.288-7.765,2.581-11.883L373.44,318.229z M246.016,412.224l-27.285,72.747l-52.821-35.2c-3.221-2.112-7.296-2.389-10.688-0.661L95.36,479.04l54.229-131.733 c2.56,4.352,5.717,8.277,10.347,10.965c10.645,6.165,23.083,3.264,34.069,0.704c6.72-1.557,13.675-3.221,17.792-2.091 c3.733,1.003,9.003,5.952,13.653,10.325c3.008,2.816,6.229,5.653,9.6,8.277c0.085,0.405,0.021,0.811,0.149,1.216l11.477,34.453 C246.486,411.541,246.166,411.819,246.016,412.224z M255.979,362.667c-4.203,0-10.432-5.845-15.936-11.008 c-6.784-6.4-13.824-12.992-22.741-15.381c-2.88-0.768-5.781-1.088-8.704-1.088c-6.464,0-13.013,1.536-19.392,3.008 c-6.827,1.6-15.275,3.563-18.56,1.621c-3.435-1.984-5.867-10.027-8.021-17.131c-2.731-9.067-5.547-18.432-12.224-25.088 c-6.656-6.656-16.021-9.493-25.088-12.224c-7.104-2.133-15.147-4.565-17.152-8c-1.899-3.307,0.064-11.755,1.643-18.56 c2.155-9.301,4.373-18.901,1.92-28.139c-2.411-8.917-9.003-15.936-15.381-22.741c-5.184-5.504-11.029-11.733-11.029-15.936 s5.867-10.432,11.029-15.936c6.379-6.784,12.992-13.824,15.381-22.741c2.453-9.216,0.235-18.816-1.92-28.117 c-1.579-6.805-3.541-15.253-1.643-18.539c2.005-3.435,10.048-5.867,17.173-8.021c9.067-2.731,18.411-5.568,25.088-12.224 c6.635-6.635,9.472-16.021,12.224-25.067c2.155-7.104,4.587-15.168,8-17.152c3.349-1.877,11.776,0.064,18.539,1.643 c9.259,2.155,18.837,4.395,28.117,1.92c8.917-2.389,15.957-9.003,22.763-15.381c5.483-5.163,11.712-11.008,15.915-11.008 c4.203,0,10.432,5.845,15.936,11.008c6.784,6.4,13.824,12.992,22.741,15.381c9.259,2.475,18.859,0.235,28.096-1.92 c6.805-1.6,15.275-3.541,18.56-1.621c3.435,1.984,5.867,10.027,8.021,17.131c2.731,9.067,5.547,18.432,12.224,25.088 c6.656,6.656,16.021,9.493,25.088,12.224c7.104,2.133,15.147,4.565,17.152,8c1.899,3.307-0.064,11.755-1.643,18.56 c-2.155,9.301-4.373,18.901-1.92,28.139c2.411,8.917,9.003,15.936,15.381,22.741c5.184,5.504,11.029,11.733,11.029,15.936 s-5.867,10.432-11.029,15.936c-6.379,6.784-12.992,13.824-15.381,22.741c-2.453,9.216-0.235,18.816,1.92,28.117 c1.579,6.805,3.541,15.253,1.643,18.539c-2.005,3.435-10.048,5.867-17.173,8.021c-9.067,2.731-18.411,5.568-25.088,12.224 c-6.635,6.635-9.472,16.021-12.224,25.067c-2.155,7.104-4.587,15.168-8,17.152c-3.285,1.899-11.755-0.064-18.539-1.643 c-9.259-2.155-18.837-4.395-28.117-1.92c-8.917,2.389-15.957,9.003-22.763,15.381 C266.411,356.821,260.182,362.667,255.979,362.667z M356.758,449.131c-3.413-1.728-7.509-1.472-10.688,0.661l-52.373,34.923 l-33.792-101.376c10.667-1.621,19.157-9.109,26.624-16.128c4.672-4.373,9.941-9.323,13.675-10.325 c4.117-1.088,11.072,0.533,17.792,2.091c11.029,2.56,23.467,5.44,34.069-0.683c4.608-2.667,7.765-6.613,10.325-10.965 l54.229,131.733L356.758,449.131z"/> <path d="M384,192c0-70.592-57.408-128-128-128s-128,57.408-128,128s57.408,128,128,128S384,262.592,384,192z M256,298.667 c-58.816,0-106.667-47.851-106.667-106.667S197.184,85.333,256,85.333S362.667,133.184,362.667,192S314.816,298.667,256,298.667z "/>
<symbol id="icon-angle-double-right" viewBox="0 0 16 28">
<title>angle-double-right</title>
<path d="M9.297 15c0 0.125-0.063 0.266-0.156 0.359l-7.281 7.281c-0.094 0.094-0.234 0.156-0.359 0.156s-0.266-0.063-0.359-0.156l-0.781-0.781c-0.094-0.094-0.156-0.234-0.156-0.359s0.063-0.266 0.156-0.359l6.141-6.141-6.141-6.141c-0.094-0.094-0.156-0.234-0.156-0.359s0.063-0.266 0.156-0.359l0.781-0.781c0.094-0.094 0.234-0.156 0.359-0.156s0.266 0.063 0.359 0.156l7.281 7.281c0.094 0.094 0.156 0.234 0.156 0.359zM15.297 15c0 0.125-0.063 0.266-0.156 0.359l-7.281 7.281c-0.094 0.094-0.234 0.156-0.359 0.156s-0.266-0.063-0.359-0.156l-0.781-0.781c-0.094-0.094-0.156-0.234-0.156-0.359s0.063-0.266 0.156-0.359l6.141-6.141-6.141-6.141c-0.094-0.094-0.156-0.234-0.156-0.359s0.063-0.266 0.156-0.359l0.781-0.781c0.094-0.094 0.234-0.156 0.359-0.156s0.266 0.063 0.359 0.156l7.281 7.281c0.094 0.094 0.156 0.234 0.156 0.359z"/>
</symbol>
<symbol id="icon-angle-double-left" viewBox="0 0 16 28">
<title>angle-double-left</title>
<path d="M9.797 21.5c0 0.125-0.063 0.266-0.156 0.359l-0.781 0.781c-0.094 0.094-0.234 0.156-0.359 0.156s-0.266-0.063-0.359-0.156l-7.281-7.281c-0.094-0.094-0.156-0.234-0.156-0.359s0.063-0.266 0.156-0.359l7.281-7.281c0.094-0.094 0.234-0.156 0.359-0.156s0.266 0.063 0.359 0.156l0.781 0.781c0.094 0.094 0.156 0.234 0.156 0.359s-0.063 0.266-0.156 0.359l-6.141 6.141 6.141 6.141c0.094 0.094 0.156 0.234 0.156 0.359zM15.797 21.5c0 0.125-0.063 0.266-0.156 0.359l-0.781 0.781c-0.094 0.094-0.234 0.156-0.359 0.156s-0.266-0.063-0.359-0.156l-7.281-7.281c-0.094-0.094-0.156-0.234-0.156-0.359s0.063-0.266 0.156-0.359l7.281-7.281c0.094-0.094 0.234-0.156 0.359-0.156s0.266 0.063 0.359 0.156l0.781 0.781c0.094 0.094 0.156 0.234 0.156 0.359s-0.063 0.266-0.156 0.359l-6.141 6.141 6.141 6.141c0.094 0.094 0.156 0.234 0.156 0.359z"/>
</symbol>
<symbol id="icon-angle-right" viewBox="0 0 9 28">
<title>angle-right</title>
<path d="M9.297 15c0 0.125-0.063 0.266-0.156 0.359l-7.281 7.281c-0.094 0.094-0.234 0.156-0.359 0.156s-0.266-0.063-0.359-0.156l-0.781-0.781c-0.094-0.094-0.156-0.219-0.156-0.359 0-0.125 0.063-0.266 0.156-0.359l6.141-6.141-6.141-6.141c-0.094-0.094-0.156-0.234-0.156-0.359s0.063-0.266 0.156-0.359l0.781-0.781c0.094-0.094 0.234-0.156 0.359-0.156s0.266 0.063 0.359 0.156l7.281 7.281c0.094 0.094 0.156 0.234 0.156 0.359z"/>
</symbol>
<symbol id="icon-angle-left" viewBox="0 0 11 28">
<title>angle-left</title>
<path d="M9.797 8.5c0 0.125-0.063 0.266-0.156 0.359l-6.141 6.141 6.141 6.141c0.094 0.094 0.156 0.234 0.156 0.359s-0.063 0.266-0.156 0.359l-0.781 0.781c-0.094 0.094-0.234 0.156-0.359 0.156s-0.266-0.063-0.359-0.156l-7.281-7.281c-0.094-0.094-0.156-0.234-0.156-0.359s0.063-0.266 0.156-0.359l7.281-7.281c0.094-0.094 0.234-0.156 0.359-0.156s0.266 0.063 0.359 0.156l0.781 0.781c0.094 0.094 0.156 0.219 0.156 0.359z"/>
</symbol>
<symbol id="icon-edit" viewBox="0 0 24 24">
<title></title>
<path d="M20 13.7c-0.6 0-1 0.4-1 1v5.3c0 0.6-0.4 1-1 1h-14c-0.6 0-1-0.4-1-1v-14c0-0.6 0.4-1 1-1h5.3c0.6 0 1-0.4 1-1s-0.4-1-1-1h-5.3c-1.7 0-3 1.3-3 3v14c0 1.7 1.3 3 3 3h14c1.7 0 3-1.3 3-3v-5.3c0-0.6-0.4-1-1-1z"/>
<path d="M22.7 5.3l-4-4c-0.4-0.4-1-0.4-1.4 0l-10 10c-0.2 0.2-0.3 0.4-0.3 0.7v4c0 0.6 0.4 1 1 1h4c0.3 0 0.5-0.1 0.7-0.3l10-10c0.4-0.4 0.4-1 0-1.4zM11.6 15h-2.6v-2.6l9-9 2.6 2.6-9 9z"/>
</symbol>
<symbol id="icon-trash" viewBox="0 0 512 512">
<title></title>
<path d="M436,60h-90V45c0-24.813-20.187-45-45-45h-90c-24.813,0-45,20.187-45,45v15H76c-24.813,0-45,20.187-45,45v30 c0,8.284,6.716,15,15,15h16.183L88.57,470.945c0.003,0.043,0.007,0.086,0.011,0.129C90.703,494.406,109.97,512,133.396,512 h245.207c23.427,0,42.693-17.594,44.815-40.926c0.004-0.043,0.008-0.086,0.011-0.129L449.817,150H466c8.284,0,15-6.716,15-15v-30 C481,80.187,460.813,60,436,60z M196,45c0-8.271,6.729-15,15-15h90c8.271,0,15,6.729,15,15v15H196V45z M393.537,468.408 c-0.729,7.753-7.142,13.592-14.934,13.592H133.396c-7.792,0-14.204-5.839-14.934-13.592L92.284,150h327.432L393.537,468.408z M451,120h-15H76H61v-15c0-8.271,6.729-15,15-15h105h150h105c8.271,0,15,6.729,15,15V120z"/><path d="M256,180c-8.284,0-15,6.716-15,15v212c0,8.284,6.716,15,15,15s15-6.716,15-15V195C271,186.716,264.284,180,256,180z"/><path d="M346,180c-8.284,0-15,6.716-15,15v212c0,8.284,6.716,15,15,15s15-6.716,15-15V195C361,186.716,354.284,180,346,180z"/><path d="M166,180c-8.284,0-15,6.716-15,15v212c0,8.284,6.716,15,15,15s15-6.716,15-15V195C181,186.716,174.284,180,166,180z"/>
</symbol>
<symbol id="icon-key" viewBox="0 0 32 32">
<title>key</title>
<path d="M22.004 0c-5.523 0-10 4.478-10 10 0 1.285 0.269 2.501 0.713 3.629l-12.149 12.148c-0.351 0.352-0.568 0.686-0.568 1.223v3c0 1.070 0.929 2 2 2h3c0.536 0 0.875-0.215 1.226-0.564l1.435-1.436h2.343c1.104 0 2-0.896 2-2v-2h2c1.104 0 2-0.896 2-2v-2.344l2.369-2.371c1.129 0.445 2.344 0.715 3.631 0.715 5.521 0 10-4.478 10-10s-4.479-10-10-10zM22.004 18c-1.48 0-2.852-0.43-4.041-1.132l-0.344 0.343-3.030 3.031c-0.375 0.375-0.586 0.883-0.586 1.414v2.344h-2c-1.104 0-2 0.895-2 2v2h-2.342c-0.53 0-1.039 0.211-1.414 0.586l-1.418 1.418-2.826-0.004-0.003-2.85 11.665-11.644c0 0 0 0.001 0.001 0.002l1.469-1.469c-0.702-1.189-1.132-2.56-1.132-4.040 0-4.418 3.583-8 8-8s8 3.582 8 8-3.581 8.001-7.999 8.001zM27.82 8.239c-1.121-1.562-2.486-2.925-4.055-4.054-0.255-0.185-0.585-0.231-0.882-0.127-1.389 0.489-2.34 1.439-2.826 2.828-0.037 0.104-0.055 0.212-0.055 0.319 0 0.199 0.062 0.396 0.182 0.563 1.125 1.564 2.488 2.928 4.053 4.053 0.256 0.184 0.584 0.231 0.881 0.128 1.391-0.486 2.342-1.438 2.83-2.828 0.037-0.104 0.055-0.212 0.055-0.319-0.001-0.199-0.064-0.396-0.183-0.563zM24.82 11.010c-1.478-1.063-2.765-2.35-3.82-3.793 0.387-1.103 1.111-1.827 2.182-2.221 1.479 1.065 2.764 2.349 3.816 3.811-0.391 1.095-1.113 1.815-2.178 2.203z"/>
</symbol>
<symbol id="icon-notification" viewBox="0 0 24 24">
<title>notification</title>
<path d="M12 1c-6.1 0-11 4.9-11 11s4.9 11 11 11 11-4.9 11-11-4.9-11-11-11zM12 21c-5 0-9-4-9-9s4-9 9-9c5 0 9 4 9 9s-4 9-9 9z"/>
<path d="M12 7c-0.6 0-1 0.4-1 1v4c0 0.6 0.4 1 1 1s1-0.4 1-1v-4c0-0.6-0.4-1-1-1z"/>
<path d="M11.3 15.3c-0.2 0.2-0.3 0.4-0.3 0.7s0.1 0.5 0.3 0.7c0.2 0.2 0.4 0.3 0.7 0.3s0.5-0.1 0.7-0.3c0.2-0.2 0.3-0.5 0.3-0.7s-0.1-0.5-0.3-0.7c-0.4-0.4-1-0.4-1.4 0z"/>
</symbol>
<symbol id="icon-calendar" viewBox="0 0 32 32">
<title>calendar</title>
<path d="M29.334 3h-4.334v-2c0-0.553-0.447-1-1-1s-1 0.447-1 1v2h-6v-2c0-0.553-0.448-1-1-1s-1 0.447-1 1v2h-6v-2c0-0.553-0.448-1-1-1s-1 0.447-1 1v2h-4.333c-1.473 0-2.667 1.193-2.667 2.666v23.667c0 1.473 1.194 2.667 2.667 2.667h26.667c1.473 0 2.666-1.194 2.666-2.667v-23.667c0-1.473-1.193-2.666-2.666-2.666zM30 29.333c0 0.368-0.299 0.667-0.666 0.667h-26.667c-0.368 0-0.667-0.299-0.667-0.667v-23.667c0-0.367 0.299-0.666 0.667-0.666h4.333v2c0 0.553 0.448 1 1 1s1-0.447 1-1v-2h6v2c0 0.553 0.448 1 1 1s1-0.447 1-1v-2h6v2c0 0.553 0.447 1 1 1s1-0.447 1-1v-2h4.334c0.367 0 0.666 0.299 0.666 0.666v23.667zM7 12h4v3h-4zM7 17h4v3h-4zM7 22h4v3h-4zM14 22h4v3h-4zM14 17h4v3h-4zM14 12h4v3h-4zM21 22h4v3h-4zM21 17h4v3h-4zM21 12h4v3h-4z"/>
</symbol>
<symbol id="icon-photo" viewBox="0 0 30 28">
<title>photo</title>
<path d="M10 9c0 1.656-1.344 3-3 3s-3-1.344-3-3 1.344-3 3-3 3 1.344 3 3zM26 15v7h-22v-3l5-5 2.5 2.5 8-8zM27.5 4h-25c-0.266 0-0.5 0.234-0.5 0.5v19c0 0.266 0.234 0.5 0.5 0.5h25c0.266 0 0.5-0.234 0.5-0.5v-19c0-0.266-0.234-0.5-0.5-0.5zM30 4.5v19c0 1.375-1.125 2.5-2.5 2.5h-25c-1.375 0-2.5-1.125-2.5-2.5v-19c0-1.375 1.125-2.5 2.5-2.5h25c1.375 0 2.5 1.125 2.5 2.5z"/>
</symbol>
<symbol id="icon-zoom-in" viewBox="0 0 24 24">
<title>zoom-in</title>
<path d="M21.7 20.3l-3.7-3.7c1.2-1.5 2-3.5 2-5.6 0-5-4-9-9-9s-9 4-9 9c0 5 4 9 9 9 2.1 0 4.1-0.7 5.6-2l3.7 3.7c0.2 0.2 0.5 0.3 0.7 0.3s0.5-0.1 0.7-0.3c0.4-0.4 0.4-1 0-1.4zM4 11c0-3.9 3.1-7 7-7s7 3.1 7 7c0 1.9-0.8 3.7-2 4.9 0 0 0 0 0 0s0 0 0 0c-1.3 1.3-3 2-4.9 2-4 0.1-7.1-3-7.1-6.9z"/>
<path d="M14 10h-2v-2c0-0.6-0.4-1-1-1s-1 0.4-1 1v2h-2c-0.6 0-1 0.4-1 1s0.4 1 1 1h2v2c0 0.6 0.4 1 1 1s1-0.4 1-1v-2h2c0.6 0 1-0.4 1-1s-0.4-1-1-1z"/>
</symbol>
<symbol id="icon-hand-down" viewBox="0 0 512 512">
<title>hand-down</title>
<path d="M480 208v80c0 26.467-21.533 48-48 48-8.552 0-16.588-2.247-23.549-6.184-8.538 13.331-23.48 22.184-40.451 22.184-12.282 0-23.502-4.638-32-12.252-8.498 7.614-19.718 12.252-32 12.252-5.607 0-10.993-0.967-16-2.742v114.742c0 26.467-21.533 48-48 48-26.468 0-48-21.533-48-48v-197.338l-88.009 46.918c-7.269 4.199-15.563 6.42-23.991 6.42-26.468 0-48-21.533-48-48 0-13.184 5.236-25.476 14.744-34.613 0.124-0.119 0.248-0.235 0.375-0.35l119.585-109.037h-22.704c-8.837 0-16-7.163-16-16v-96c0-8.837 7.163-16 16-16h320c8.837 0 16 7.163 16 16v96c0 8.837-7.163 16-16 16h-22.111l36.421 72.845c1.112 2.221 1.69 4.671 1.69 7.155zM448 80c0-8.837-7.163-16-16-16s-16 7.163-16 16 7.163 16 16 16 16-7.163 16-16zM448 211.777l-41.889-83.777h-191.912l-145.41 132.584c-3.090 3.033-4.789 7.081-4.789 11.416 0 8.822 7.178 16 16 16 2.729 0 5.306-0.654 7.662-1.947 0.265-0.162 0.535-0.316 0.811-0.463l112-59.708c4.96-2.644 10.942-2.493 15.76 0.4 4.819 2.891 7.767 8.098 7.767 13.718v224c0 8.822 7.178 16 16 16s16-7.178 16-16v-160c0-8.836 7.163-16 16-16s16 7.164 16 16c0 8.822 7.178 16 16 16s16-7.178 16-16c0-8.837 7.163-16 16-16s16 7.163 16 16c0 8.822 7.178 16 16 16s16-7.178 16-16v-16c0-8.837 7.163-16 16-16s16 7.163 16 16c0 8.822 7.178 16 16 16s16-7.178 16-16v-76.223z"/>
</symbol>
<symbol id="icon-resize-full" viewBox="0 0 32 32">
<title>resize-full</title>
<path d="M25.99 6.042l-0.004 9.735-3.732-3.733-4.454 4.455-2.665-2.665 4.454-4.454-3.384-3.383 9.785 0.045zM11.494 22.805l3.238 3.182-9.722 0.017 0.004-9.68 3.815 3.815 4.925-4.924 2.665 2.665-4.925 4.925z"/>
</symbol>
<symbol id="icon-resize-vertical" viewBox="0 0 16 16">
<title>resize-vertical</title>
<path fill="#444444" d="M9 3h2l-3-3-3 3h2v10h-2l3 3 3-3h-2z"/>
</symbol>
<symbol id="icon-fullscreen" viewBox="0 0 32 32">
<title>fullscreen</title>
<path d="M23.977 28.965v-1.932h3.988v-3.988h2.057v5.92h-6.045zM27.965 5.967h-3.988v-1.932h6.045v5.92h-2.057v-3.988zM3.035 9.955h-2.056v-5.92h6.045v1.932h-3.989v3.988zM4.967 8.023h21.066v16.953h-21.066v-16.953zM7.023 23.045h16.953v-13.090h-16.953v13.090zM9.018 12.012h13.027v8.977h-13.027v-8.977zM3.035 27.033h3.988v1.932h-6.044v-5.92h2.057v3.988z"/>
</symbol>
<symbol id="icon-cancel" viewBox="0 0 32 32">
<title>cancel</title>
<path d="M19.587 16.001l6.096 6.096c0.396 0.396 0.396 1.039 0 1.435l-2.151 2.151c-0.396 0.396-1.038 0.396-1.435 0l-6.097-6.096-6.097 6.096c-0.396 0.396-1.038 0.396-1.434 0l-2.152-2.151c-0.396-0.396-0.396-1.038 0-1.435l6.097-6.096-6.097-6.097c-0.396-0.396-0.396-1.039 0-1.435l2.153-2.151c0.396-0.396 1.038-0.396 1.434 0l6.096 6.097 6.097-6.097c0.396-0.396 1.038-0.396 1.435 0l2.151 2.152c0.396 0.396 0.396 1.038 0 1.435l-6.096 6.096z"/>
</symbol>
<symbol id="icon-upload" viewBox="0 0 16 16">
<title>upload</title>
<path d="M15 7c-0.553 0-1 0.448-1 1v6h-12v-6c0-0.552-0.447-1-1-1s-1 0.448-1 1v7c0 0.552 0.447 1 1 1h14c0.553 0 1-0.448 1-1v-7c0-0.552-0.447-1-1-1zM7 10c0 0.552 0.447 1 1 1s1-0.448 1-1v-6h3l-4-4-4 4h3v6z"/>
</symbol>
<symbol id="icon-mobile-en" viewBox="0 0 24 24">
<title>mobile-en</title>
<path style="fill:#010101" d="M18.2,0H5.8C5,0,4.3,0.7,4.3,1.5v21C4.3,23.3,5,24,5.8,24h12.4c0.8,0,1.5-0.7,1.5-1.5v-21C19.7,0.7,19,0,18.2,0 z M5,3.8H19v15.9H5V3.8z M5.8,0.8h12.4c0.4,0,0.8,0.3,0.8,0.8v1.8H5V1.5C5,1.1,5.4,0.8,5.8,0.8z M18.2,23.2H5.8 c-0.4,0-0.8-0.3-0.8-0.8v-2.3H19v2.3C19,22.9,18.6,23.2,18.2,23.2z M12,20.5c-0.7,0-1.2,0.6-1.2,1.2c0,0.7,0.6,1.2,1.2,1.2 c0.7,0,1.2-0.6,1.2-1.2C13.2,21.1,12.7,20.5,12,20.5z M12,22.5c-0.4,0-0.7-0.3-0.7-0.7c0-0.4,0.3-0.7,0.7-0.7c0.4,0,0.7,0.3,0.7,0.7 C12.7,22.2,12.4,22.5,12,22.5z M10.3,2.4h3.5c0.1,0,0.3-0.1,0.3-0.3s-0.1-0.3-0.3-0.3h-3.5C10.1,1.9,10,2,10,2.2S10.1,2.4,10.3,2.4z M9.4,2.4c0.1,0,0.1,0,0.2-0.1c0,0,0.1-0.1,0.1-0.2c0-0.1,0-0.1-0.1-0.2c0,0-0.1-0.1-0.2-0.1c-0.1,0-0.1,0-0.2,0.1 c0,0-0.1,0.1-0.1,0.2c0,0.1,0,0.1,0.1,0.2C9.2,2.4,9.3,2.4,9.4,2.4z M9.1,15.7V7.6h5.9v1h-4.8V11h4.5V12h-4.5v2.8h5v1H9.1z"/>
</symbol>
<symbol id="icon-mobile-mm" viewBox="0 0 24 24">
<title>mobile-mm</title>
<path style="fill:#010101" d="M18.2,0H5.8C5,0,4.3,0.7,4.3,1.5v21C4.3,23.3,5,24,5.8,24h12.4c0.8,0,1.5-0.7,1.5-1.5v-21C19.7,0.7,19,0,18.2,0 z M5,3.8H19v15.9H5V3.8z M5.8,0.8h12.4c0.4,0,0.8,0.3,0.8,0.8v1.8H5V1.5C5,1.1,5.4,0.8,5.8,0.8z M18.2,23.2H5.8 c-0.4,0-0.8-0.3-0.8-0.8v-2.3H19v2.3C19,22.9,18.6,23.2,18.2,23.2z M12,20.5c-0.7,0-1.2,0.6-1.2,1.2c0,0.7,0.6,1.2,1.2,1.2 c0.7,0,1.2-0.6,1.2-1.2C13.2,21.1,12.7,20.5,12,20.5z M12,22.5c-0.4,0-0.7-0.3-0.7-0.7c0-0.4,0.3-0.7,0.7-0.7c0.4,0,0.7,0.3,0.7,0.7 C12.7,22.2,12.4,22.5,12,22.5z M10.3,2.4h3.5c0.1,0,0.3-0.1,0.3-0.3s-0.1-0.3-0.3-0.3h-3.5C10.1,1.9,10,2,10,2.2S10.1,2.4,10.3,2.4z M9.4,2.4c0.1,0,0.1,0,0.2-0.1c0,0,0.1-0.1,0.1-0.2c0-0.1,0-0.1-0.1-0.2c0,0-0.1-0.1-0.2-0.1c-0.1,0-0.1,0-0.2,0.1 c0,0-0.1,0.1-0.1,0.2c0,0.1,0,0.1,0.1,0.2C9.2,2.4,9.3,2.4,9.4,2.4z M8.1,15.7V7.6h1.6l1.9,5.7c0.2,0.5,0.3,0.9,0.4,1.2 c0.1-0.3,0.2-0.7,0.4-1.3l1.9-5.6h1.4v8.1h-1V8.9l-2.4,6.8h-1L9.2,8.8v6.9H8.1z"/>
</symbol>
<symbol id="icon-browser-mm" viewBox="0 0 24 24">
<title>browser-mm</title>
<path style="fill:#010101" d="M21.7,1.1H2.3C1,1.1,0,2.1,0,3.4v13.2c0,1.2,1,2.3,2.3,2.3h7.4l-0.4,2.8H7.4c-0.3,0-0.6,0.3-0.6,0.6 c0,0.3,0.3,0.6,0.6,0.6h2.4h4.4h2.4c0.3,0,0.6-0.3,0.6-0.6c0-0.3-0.3-0.6-0.6-0.6h-1.9l-0.4-2.8h7.4c1.2,0,2.3-1,2.3-2.3V3.4 C24,2.1,23,1.1,21.7,1.1L21.7,1.1z M2.3,2.4h19.5c0.6,0,1,0.5,1,1v11.5H1.2V3.4C1.2,2.8,1.7,2.4,2.3,2.4z M13.5,21.6h-2.9l0.4-2.8 h2.1L13.5,21.6L13.5,21.6z M21.7,17.6H2.3c-0.6,0-1-0.5-1-1v-0.4h21.5v0.4C22.8,17.1,22.3,17.6,21.7,17.6L21.7,17.6z M8.1,13V4.9 h1.6l1.9,5.7c0.2,0.5,0.3,0.9,0.4,1.2c0.1-0.3,0.2-0.7,0.4-1.3l1.9-5.6h1.4V13h-1V6.2L12.5,13h-1L9.2,6.1V13H8.1z"/>
</symbol>
<symbol id="icon-browser-en" viewBox="0 0 24 24">
<title>browser-en</title>
<path style="fill:#010101" d="M21.7,1.1H2.3C1,1.1,0,2.1,0,3.4v13.2c0,1.2,1,2.3,2.3,2.3h7.4l-0.4,2.8H7.4c-0.3,0-0.6,0.3-0.6,0.6 c0,0.3,0.3,0.6,0.6,0.6h2.4h4.4h2.4c0.3,0,0.6-0.3,0.6-0.6c0-0.3-0.3-0.6-0.6-0.6h-1.9l-0.4-2.8h7.4c1.2,0,2.3-1,2.3-2.3V3.4 C24,2.1,23,1.1,21.7,1.1L21.7,1.1z M2.3,2.4h19.5c0.6,0,1,0.5,1,1v11.5H1.2V3.4C1.2,2.8,1.7,2.4,2.3,2.4z M13.5,21.6h-2.9l0.4-2.8 h2.1L13.5,21.6L13.5,21.6z M21.7,17.6H2.3c-0.6,0-1-0.5-1-1v-0.4h21.5v0.4C22.8,17.1,22.3,17.6,21.7,17.6L21.7,17.6z M9,13V5h5.9v1 h-4.8v2.5h4.5v0.9h-4.5v2.8h5v1H9z"/>
</symbol>
<symbol id="icon-clip" viewBox="0 0 32 32">
<title>clip</title>
<path d="M29.363 4.637c3.516 3.514 3.516 9.213 0 12.727l-10.967 10.968c-0.391 0.392-1.023 0.392-1.414 0-0.393-0.391-0.393-1.022 0-1.414l10.826-10.827c2.734-2.734 2.734-7.164-0.002-9.899-2.73-2.734-7.164-2.734-9.898 0l-14.447 14.277c-1.953 1.952-1.953 5.118 0 7.070 1.953 1.953 5.117 1.953 7.070 0l14.59-14.417c1.17-1.17 1.17-3.073 0-4.243s-3.072-1.169-4.242 0l-10.969 10.969c-0.391 0.391-1.023 0.391-1.414 0-0.391-0.392-0.391-1.023 0-1.415l10.968-10.968c1.951-1.952 5.117-1.952 7.070 0s1.953 5.118 0 7.071l-14.59 14.418c-2.728 2.729-7.169 2.729-9.898 0s-2.729-7.171 0-9.9l14.59-14.417c3.514-3.516 9.213-3.516 12.727 0z"/>
</symbol>
<symbol id="icon-change-img" viewBox="0 0 24 24">
<title>change-img</title>
<path d="M12,22.9c-2.4,0-4.7,0-7.1,0C1.9,22.8,0,21,0,18c0-2.8,0-5.7,0-8.5c0-3,1.9-4.8,4.8-4.8c0.8,0,1.2,0,1.4-0.3 C7,3.1,7.8,1.2,8.7,1.2c1.5,0,5.5,0,7,0c1.2,0,2.1,3.5,2.7,3.5c0.6,0,1.2,0,1.8,0.1c2.2,0.4,3.7,2.1,3.8,4.4c0,3.1,0,6.1,0,9.2 c0,2.7-1.9,4.5-4.6,4.5C16.9,22.9,14.4,22.9,12,22.9z M12,20.8c2.4,0,4.8,0,7.3,0c1.5,0,2.7-1.2,2.7-2.7c0-0.7,0-1.5,0-2.2 c0-2.3,0-4.5,0-6.8c0-1.4-1.1-2.5-2.5-2.5c-0.8,0-1.4,0.1-2.4,0.1c-0.6,0-0.8-0.3-0.9-0.7c-0.4-1.5-0.6-2.8-2.5-2.8 c-1.4,0-2,0-3.1,0c-2.1,0-2.1,0.9-2.8,2.9c0,0.2-0.2,0.6-1,0.6c-0.8,0-1.6,0-2.3,0C3.2,6.8,2,7.9,2,9.3c0,3,0,6,0,9 c0,1.4,1.2,2.6,2.6,2.6C7.1,20.8,9.5,20.8,12,20.8z M10.6,16.2C9.8,15.7,9.2,15,9.1,14c0.4-0.1,0.7-0.1,0.9-0.1 c-0.7-0.7-1.4-1.4-2-2c-0.6,0.6-1.3,1.3-2,2c0.2,0,0.5,0,0.9,0.1c0.4,2.4,1.7,4,4.1,4.5c1.8,0.4,3.4-0.1,4.8-1.4 c-0.5-0.5-1-0.9-1.4-1.4C13.3,16.7,12,17,10.6,16.2z M12.8,8.1c-1.6-0.2-3.1,0.3-4.2,1.6c0.5,0.4,0.9,0.8,1.4,1.2 c1.2-1,2.4-1.3,3.7-0.6c0.8,0.5,1.4,1.2,1.5,2.2c-0.4,0.1-0.6,0.1-1.1,0.2c0.8,0.8,1.5,1.4,2.3,2.1c0.7-0.8,1.3-1.5,2-2.3 c-0.5,0-0.8,0-1.2,0C16.7,10.1,15.3,8.5,12.8,8.1z"/>
</symbol>
<symbol id="icon-detail-view" viewBox="0 0 24 24">
<title></title>
<path d="M 5 2 C 3.9 2 3 2.9 3 4 L 3 19 C 3 20.1 3.9 21 5 21 L 9.90625 21 C 9.40625 20.4 9.1125 19.7 8.8125 19 L 5 19 L 5 4 L 17 4 L 17 10.8125 C 17.7 11.0125 18.4 11.40625 19 11.90625 L 19 4 C 19 2.9 18.1 2 17 2 L 5 2 z M 15 12 C 12.254545 12 10 14.254545 10 17 C 10 19.745455 12.254545 22 15 22 C 16.014334 22 16.958627 21.71405 17.75 21.1875 L 20.59375 24 L 22 22.59375 L 19.1875 19.75 C 19.71405 18.958627 20 18.014334 20 17 C 20 14.254545 17.745455 12 15 12 z M 15 14 C 16.654545 14 18 15.345455 18 17 C 18 18.654545 16.654545 20 15 20 C 13.345455 20 12 18.654545 12 17 C 12 15.345455 13.345455 14 15 14 z"/>
</symbol>
<symbol id="icon-transaction" viewBox="0 0 1000 1000">
<title></title>
<path d="M500,96.4c222.5,0,403.6,181,403.6,403.6c0,222.5-181,403.6-403.6,403.6c-222.5,0-403.6-181-403.6-403.6C96.4,277.5,277.5,96.4,500,96.4 M500,10C229.4,10,10,229.4,10,500c0,270.6,219.4,490,490,490c270.6,0,490-219.4,490-490C990,229.4,770.6,10,500,10L500,10z M730.5,456.8H177.3v-73.5h495.5h57.6V456.8z M822.7,456.8H687.3V321.4L822.7,456.8z M269.5,543.2h553.2v73.5H327.1h-57.6V543.2z M177.3,543.2h135.4v135.4L177.3,543.2z"/>
</symbol>
<symbol id="icon-file-list" viewBox="0 0 493.894 493.894">
<title></title>
<path d="M418.152,0H203.408c-12.427,0-24.325,4.953-33.101,13.755L42.654,142.01c-8.715,8.754-13.602,20.597-13.602,32.944 v272.243c0,25.789,20.916,46.697,46.705,46.697h342.395c25.788,0,46.69-20.908,46.69-46.697v-400.5 C464.842,20.91,443.94,0,418.152,0z M431.914,447.197c0,7.597-6.175,13.769-13.763,13.769H75.757 c-7.605,0-13.781-6.172-13.781-13.769V184.238h131.322c12.088,0,21.928-9.839,21.928-21.939V32.927h202.926 c7.587,0,13.763,6.172,13.763,13.77v400.5H431.914z"/> <path d="M339.277,254.455H154.646c-13.632,0-24.695,11.054-24.695,24.695s11.063,24.695,24.695,24.695h184.631 c13.636,0,24.695-11.054,24.695-24.695S352.912,254.455,339.277,254.455z"/> <path d="M339.277,172.139h-69.388c-13.635,0-24.694,11.054-24.694,24.694c0,13.642,11.059,24.695,24.694,24.695h69.388 c13.636,0,24.695-11.053,24.695-24.695C363.971,183.193,352.912,172.139,339.277,172.139z"/> <path d="M339.277,89.825h-69.388c-13.635,0-24.694,11.05-24.694,24.695c0,13.641,11.059,24.694,24.694,24.694h69.388 c13.636,0,24.695-11.054,24.695-24.694C363.971,100.876,352.912,89.825,339.277,89.825z"/> <path d="M339.277,347.421H154.646c-13.632,0-24.695,11.053-24.695,24.694s11.063,24.695,24.695,24.695h184.631 c13.636,0,24.695-11.054,24.695-24.695S352.912,347.421,339.277,347.421z"/>
</symbol>
<symbol id="icon-file-list-box" viewBox="0 0 64 64">
<title></title>
<path d="M32,63.5c-8.4,0-16.8-0.1-25.2,0c-4.2,0.1-6.9-3.3-6.8-6.8c0.1-6.4,0-12.7,0-19.1c0-0.5,0.1-1,0.3-1.5 c2.2-6.5,4.3-12.9,6.5-19.4C6.9,16.3,7,15.9,7,15.6c0-3.7,0-7.4,0-11.2c0-2.5,1.4-3.9,3.9-3.9c14.1,0,28.1,0,42.2,0 c2.5,0,3.9,1.4,3.9,3.9c0,3.7,0,7.4,0,11.1c0,0.4,0.1,0.9,0.2,1.2c2.2,6.5,4.4,12.9,6.5,19.4c0.2,0.5,0.2,1,0.2,1.5 c0,6.5,0,13,0,19.5c0,3.7-2.7,6.4-6.5,6.5C49,63.5,40.5,63.5,32,63.5z M52.9,35.1c0-10.2,0-20.3,0-30.4c-13.9,0-27.8,0-41.7,0 c0,10.2,0,20.3,0,30.4c0.3,0,6.6,0,9.4,0c1.9,0,2.6,0.7,2.6,2.6c0,2.2,0,4.5,0,6.7c0,0.2,0,0.5,0,0.7c5.9,0,11.8,0,17.7,0 c0-2.6,0-5.2,0-7.7c0-1.6,0.8-2.3,2.4-2.3C46.2,35.1,52.5,35.1,52.9,35.1z M4.2,39.2c0,0.2,0,18.3,0.1,18.6c0.3,1.1,1.1,1.6,2.5,1.6 c16.9,0,33.8,0,50.7,0c1.6,0,2.5-0.9,2.5-2.5c0-5.6,0-17.3,0-17.6c-5,0-9.9,0-14.9,0c0,0.3,0,4.6,0,6.5c0,2.2-1.5,3.6-3.6,3.6 c-6.2,0-12.5,0-18.7,0c-2.1,0-3.6-1.5-3.6-3.6c0-1.9,0-6.2,0-6.5C14.1,39.2,9.2,39.2,4.2,39.2z M6.9,35c0-1.9,0-3.8,0-5.7 c0,0-0.1,0-0.1,0C6.2,31.2,5.6,33.1,5,35C5.7,35,6.3,35,6.9,35z M59.1,35c-0.7-1.9-1.3-3.8-1.9-5.7c0,0-0.1,0-0.1,0 c0,1.9,0,3.8,0,5.7C57.7,35,58.3,35,59.1,35z"/> <path d="M31.9,31c-4.9,0-9.7,0-14.6,0c-0.1,0-0.3,0-0.4,0c-0.6-0.1-1-0.5-1-1.1c0-0.6,0.4-1,1-1c0.8,0,1.5,0,2.3,0 c9.1,0,18.1,0,27.2,0c1.2,0,1.7,0.3,1.6,1.1c0,0.7-0.5,1-1.6,1C41.6,31,36.8,31,31.9,31z M32,18.6c4.8,0,9.7,0,14.5,0 c0.2,0,0.5,0,0.7,0c0.6-0.1,0.9-0.5,0.9-1c0-0.5-0.3-0.9-0.9-1c-0.2,0-0.5,0-0.7,0c-7.9,0-15.7,0-23.6,0c-1.9,0-3.9,0-5.8,0 c-0.8,0-1.4,0.6-1.1,1.3c0.2,0.6,0.7,0.7,1.3,0.7C22.2,18.6,27.1,18.6,32,18.6C32,18.6,32,18.6,32,18.6z M17.3,22.8 c-0.2,0-0.3,0-0.5,0c-0.6,0.1-0.9,0.5-0.9,1c0,0.5,0.3,0.9,0.9,1c0.2,0,0.4,0,0.6,0c9.7,0,19.4,0,29,0c0.2,0,0.5,0,0.7,0 c0.5-0.1,0.9-0.4,0.9-1c0-0.6-0.3-0.9-0.9-1c-0.2,0-0.4,0-0.6,0c-4.9,0-9.7,0-14.6,0C27.1,22.8,22.2,22.8,17.3,22.8z M34.8,12.5 c0.3,0,0.6,0.1,0.8-0.1c0.3-0.2,0.6-0.6,0.7-0.9c0.1-0.5-0.2-0.9-0.7-1c-0.2-0.1-0.5-0.1-0.8-0.1c-5.7,0-11.3,0-17,0 c-0.3,0-0.7,0-1,0c-0.5,0.1-0.8,0.4-0.9,1c0,0.6,0.3,0.9,0.9,1c0.2,0,0.4,0,0.6,0c2.9,0,5.8,0,8.7,0C29,12.5,31.9,12.5,34.8,12.5z"/>
</symbol>
<symbol id="icon-back-file" viewBox="0 0 32 32">
<title></title>
<path d="M2.2,32c-0.7-0.3-0.9-0.8-0.9-1.6c0-6.7,0-13.4,0-20.1c0-0.6,0.2-1,0.6-1.4C5,6.1,8.1,3.3,11.1,0.4 c0.2-0.2,0.4-0.3,0.7-0.4C16.8,0,21.9,0,27,0c0.7,0.3,0.9,0.8,0.9,1.5c0,4.2,0,8.3,0,12.5c0,0.2,0,0.3,0,0.5 c-0.1,0.8-0.9,1.2-1.6,0.9c-0.5-0.2-0.7-0.7-0.7-1.3c0-3.8,0-7.5,0-11.3c0-0.2,0-0.3,0-0.5c-4,0-8,0-12,0c0,0.2,0,0.3,0,0.5 c0,2.8,0,5.5,0,8.3c0,1-0.4,1.4-1.4,1.4c-2.7,0-5.3,0-8,0c-0.1,0-0.3,0-0.4,0c0,5.7,0,11.4,0,17.1c7.3,0,14.5,0,21.7,0 c0-0.6,0-1.2,0-1.8c0-1,0-1.9,0-2.9c0-0.6,0.5-1.1,1-1.1c0.5-0.1,1.1,0.3,1.2,0.8c0.1,0.2,0.1,0.4,0.1,0.7c0,1.8,0,3.5,0,5.3 c0,0.7-0.2,1.2-0.9,1.5C18.7,32,10.5,32,2.2,32z M11.2,10.2c0-2.2,0-4.3,0-6.6c-2.4,2.2-4.7,4.3-7.1,6.6 C6.5,10.2,8.8,10.2,11.2,10.2z"/> <path d="M17.2,20.6c0.7,0,1.3,0,1.9,0c3.3,0,6.7,0,10,0c0.2,0,0.4,0,0.6-0.1c0.5-0.1,0.9-0.6,0.9-1.1c0-0.5-0.3-1-0.9-1.1 c-0.2,0-0.4-0.1-0.6-0.1c-3.8,0-7.7,0-11.5,0c-0.1,0-0.3,0-0.5,0c0.7-0.6,1.3-1.1,1.9-1.7c0.6-0.6,1.3-1.1,1.9-1.7 c0.6-0.5,0.6-1.2,0.2-1.7c-0.4-0.5-1.2-0.5-1.7,0c-2,1.8-4,3.5-6,5.3c-0.7,0.6-0.6,1.3,0,1.9c2,1.8,4,3.5,5.9,5.3 c0.6,0.5,1.3,0.5,1.7,0c0.5-0.5,0.4-1.2-0.2-1.7c-1.1-1-2.1-1.9-3.2-2.8C17.6,21,17.4,20.8,17.2,20.6z"/>
</symbol>
<symbol id="icon-file-cabinet" viewBox="0 0 64 64">
<title></title>
<path d="M56.4,0.5H7.6c-2.2,0-4,1.8-4,4v54.9c0,2.2,1.8,4,4,4h48.9c2.2,0,4-1.8,4-4V4.5C60.5,2.3,58.7,0.5,56.4,0.5z M56.1,34.2 v24.9H7.9V34.2H56.1z M7.9,29.8V4.9h48.2v24.9H7.9z"/> <path d="M40.5,9c-1,0-1.9,0.8-1.9,1.9v1.6c0,0.4-0.4,0.8-0.8,0.8H26.1c-0.4,0-0.8-0.4-0.8-0.8v-1.6c0-1-0.8-1.9-1.9-1.9 c-1,0-1.9,0.8-1.9,1.9v1.6c0,2.5,2,4.5,4.5,4.5h11.7c2.5,0,4.5-2,4.5-4.5v-1.6C42.4,9.8,41.6,9,40.5,9z"/> <path d="M40.5,39.9c-1,0-1.9,0.8-1.9,1.9v1.6c0,0.4-0.4,0.8-0.8,0.8H26.1c-0.4,0-0.8-0.4-0.8-0.8v-1.6c0-1-0.8-1.9-1.9-1.9 c-1,0-1.9,0.8-1.9,1.9v1.6c0,2.5,2,4.5,4.5,4.5h11.7c2.5,0,4.5-2,4.5-4.5v-1.6C42.4,40.8,41.6,39.9,40.5,39.9z"/>
</symbol>
<symbol id="icon-folder-delete" viewBox="0 0 64 64">
<title></title>
<path d="M53.8,28l-3-6.3H40L37,28H26.5v5.5h3.2v24.4c0,2.8,2.3,5.1,5.1,5.1H56c2.8,0,5.1-2.3,5.1-5.1V33.5H64V28H53.8z M55.6,57.5 H35.2v-24H37h16.9h1.7L55.6,57.5L55.6,57.5z"/> <path d="M23.3,58.6H4.4v-42h55.3V23H64v-8.1c0-1.5-1.2-2.7-2.7-2.7H33.4L27.6,1.5H0v58.8C0,61.8,1.2,63,2.7,63h20.6V58.6z M4.4,5.9 h20l3.4,6.3H4.4V5.9z"/>
</symbol>
<symbol id="icon-activate-user" viewBox="0 0 32 32">
<title></title>
<path d="M27.7,23.8c-1.8-2.5-3.9-4.1-6.6-5c1.4-0.9,2.7-2.3,3.7-3.7c0.9-1.6,1.4-3.2,1.4-5s-0.5-3.4-1.4-5 c-0.9-1.6-2.3-2.7-3.7-3.7C19.4,0.5,17.8,0,16,0s-3.4,0.5-5,1.4C9.4,2.3,8.2,3.4,7.3,5c-0.9,1.6-1.4,3.2-1.4,5s0.5,3.4,1.4,5 c0.9,1.4,2.1,2.7,3.7,3.4c-2.7,0.9-5,2.7-6.6,5C2.7,26.1,1.8,29,1.8,32H3h1.4h23.3h0.9h1.6C30.2,28.8,29.3,26.1,27.7,23.8z M9.8,13.7c-0.6-1.3-1.1-2.4-1.1-3.6s0.4-2.6,1.1-3.6c0.6-1.1,1.5-1.9,2.6-2.6c1.1-0.6,2.4-1.1,3.6-1.1s2.6,0.4,3.6,1.1 c1.1,0.6,1.9,1.5,2.6,2.6c0.6,1.1,1.1,2.4,1.1,3.6s-0.4,2.4-1.1,3.6c-0.6,1.1-1.5,1.9-2.6,2.6c-1.1,0.6-2.4,1.1-3.6,1.1 s-2.6-0.4-3.6-1.1C11.3,15.6,10.4,14.8,9.8,13.7z M5.9,25.9C7,24,8.2,23,10,21.8c1.8-0.9,3.7-1.3,6-1.3s4.3,0.5,5.9,1.4 c1.2,0.6,3.2,2.3,4.3,4.1c0.6,1.1,1.1,2.3,1.3,3.6h-23C4.8,28.3,5.2,27,5.9,25.9z"/>
</symbol>
<symbol id="icon-township" viewBox="0 0 64 64">
<title></title>
<path d="M25.5,31.2h5.3v5.3h-5.3V31.2z M25.5,10h5.3v5.3h-5.3V10z M25.5,20.6h5.3v5.3h-5.3V20.6z M36.1,10h5.3v5.3h-5.3V10z M36.1,20.6h5.3v5.3h-5.3V20.6z"/> <path d="M49.4,37.5c-2.6,0-4.6,2.1-4.6,4.6s2.1,4.6,4.6,4.6c2.6,0,4.6-2.1,4.6-4.6S52,37.5,49.4,37.5z"/> <path d="M51.6,27.3V0H15.5v59h28.7l5,5l0.3-0.4c0.1-0.1,7-7.8,10.5-12.2c2-2.5,4-6.4,4-9.5C64,33.3,57.7,28.4,51.6,27.3z M58.1,41.9 c0,2.1-1.1,4.7-3,6.9l-5.9,7.5l-6-7.6c-1.4-1.8-2.9-4.8-2.9-6.8c0-4.9,4-8.9,8.9-8.9S58.1,37,58.1,41.9z M20.4,4.9h26.4v22.4 c-6,1.1-12.4,6-12.4,14.6c0,3.1,2,7.1,4,9.5l2,2.6H20.4V4.9z"/> <path d="M0,27.6v31.4h15.2V27.6H0z M5.7,51.2H1.9v-3.9h3.8V51.2z M5.7,43.3H1.9v-3.9h3.8V43.3z M5.7,35.5H1.9v-3.9h3.8V35.5z M13.3,51.2H9.5v-3.9h3.8V51.2z M13.3,43.3H9.5v-3.9h3.8V43.3z M13.3,35.5H9.5v-3.9h3.8V35.5z"/>
</symbol>
<symbol id="icon-ward" viewBox="0 0 64 64">
<title></title>
<path d="M58.7,5.3V32c0,1.5,1.2,2.7,2.7,2.7S64,33.5,64,32V2.7C64,1.2,62.8,0,61.3,0H26.7H16H2.7C1.2,0,0,1.2,0,2.7v16v10.7v32
	c0,0,0,0,0,0v0c0,0,0,0.1,0,0.1c0,0.1,0,0.1,0,0.2c0,0,0,0.1,0,0.1c0,0,0,0.1,0,0.1c0,0,0,0.1,0,0.1c0,0,0,0.1,0,0.1
	c0,0,0,0.1,0,0.1c0,0,0,0.1,0,0.1c0,0,0,0.1,0.1,0.1c0,0,0,0.1,0.1,0.1c0,0,0,0.1,0.1,0.1c0,0,0,0.1,0.1,0.1c0,0,0,0.1,0.1,0.1
	c0,0,0.1,0.1,0.1,0.1c0,0,0.1,0.1,0.1,0.1c0,0,0.1,0.1,0.1,0.1c0,0,0.1,0.1,0.1,0.1c0,0,0,0,0.1,0.1c0,0,0,0,0,0
	c0.1,0.1,0.1,0.1,0.2,0.2c0,0,0,0,0,0c0.1,0,0.1,0.1,0.2,0.1c0,0,0.1,0,0.1,0c0,0,0.1,0,0.1,0.1c0,0,0.1,0,0.1,0c0,0,0.1,0,0.1,0
	c0,0,0.1,0,0.1,0c0,0,0.1,0,0.1,0c0.1,0,0.2,0,0.2,0c0,0,0,0,0,0c0.1,0,0.2,0,0.3,0c0,0,0,0,0,0h18.7c1.5,0,2.7-1.2,2.7-2.7
	c0-1.5-1.2-2.7-2.7-2.7h-13L18,47c0.4-0.5,0.6-1.1,0.6-1.7v-16c0-1.5-1.2-2.7-2.7-2.7H5.3v-5.3H16c1.5,0,2.7-1.2,2.7-2.7V5.3H24
	v21.3c0,2.3,2.7,3.5,4.4,2L55.7,5.3H58.7z M13.3,32v12.4l-8,9.6V32H13.3z M13.3,16h-8V5.3h8V16z M29.3,20.9V5.3h18.1L29.3,20.9z"/>
<path d="M45.3,30.6l18.1,15.2c0.5,0.5,0.2,1.4-0.6,1.4h-5.2c-0.5,0-0.8,0.4-0.8,0.8v15.3c0,0.5-0.4,0.8-0.8,0.8H34.3
	c-0.5,0-0.8-0.4-0.8-0.8l0-15.3c0-0.5-0.4-0.8-0.8-0.8h-5c-0.7,0-1.1-0.9-0.6-1.4l17.1-15.2C44.4,30.3,45,30.3,45.3,30.6z"/>
</symbol>
</defs></svg>